<mxfile host="app.diagrams.net" modified="2023-09-25T21:03:40.278Z" agent="Mozilla/5.0 (Windows NT 10.0; Win64; x64; rv:109.0) Gecko/20100101 Firefox/117.0" etag="IN_BpkRk2L2Ia35PsAkC" version="21.8.2" type="google">
  <diagram name="Page-1" id="xZ7TQIjEYPDgmtsqy1Jl">
    <mxGraphModel grid="1" page="1" gridSize="10" guides="1" tooltips="1" connect="1" arrows="1" fold="1" pageScale="1" pageWidth="850" pageHeight="1100" math="0" shadow="0">
      <root>
        <mxCell id="0" />
        <mxCell id="1" parent="0" />
        <mxCell id="YBxgFGGmpdbFOVAmpeM1-1" value="unit" style="rounded=0;whiteSpace=wrap;html=1;" vertex="1" parent="1">
          <mxGeometry x="40" y="80" width="120" height="60" as="geometry" />
        </mxCell>
        <mxCell id="YBxgFGGmpdbFOVAmpeM1-2" value="vendor" style="rounded=0;whiteSpace=wrap;html=1;" vertex="1" parent="1">
          <mxGeometry x="680" y="80" width="120" height="60" as="geometry" />
        </mxCell>
        <mxCell id="YBxgFGGmpdbFOVAmpeM1-15" style="edgeStyle=orthogonalEdgeStyle;rounded=0;orthogonalLoop=1;jettySize=auto;html=1;exitX=0.5;exitY=1;exitDx=0;exitDy=0;entryX=0.5;entryY=0;entryDx=0;entryDy=0;endArrow=none;endFill=0;" edge="1" parent="1" source="YBxgFGGmpdbFOVAmpeM1-3" target="YBxgFGGmpdbFOVAmpeM1-6">
          <mxGeometry relative="1" as="geometry" />
        </mxCell>
        <mxCell id="YBxgFGGmpdbFOVAmpeM1-3" value="category" style="rounded=0;whiteSpace=wrap;html=1;" vertex="1" parent="1">
          <mxGeometry x="360" y="340" width="120" height="60" as="geometry" />
        </mxCell>
        <mxCell id="YBxgFGGmpdbFOVAmpeM1-9" style="edgeStyle=orthogonalEdgeStyle;rounded=0;orthogonalLoop=1;jettySize=auto;html=1;exitX=0;exitY=0.5;exitDx=0;exitDy=0;endArrow=none;endFill=0;" edge="1" parent="1" source="YBxgFGGmpdbFOVAmpeM1-4" target="YBxgFGGmpdbFOVAmpeM1-8">
          <mxGeometry relative="1" as="geometry" />
        </mxCell>
        <mxCell id="YBxgFGGmpdbFOVAmpeM1-11" style="edgeStyle=orthogonalEdgeStyle;rounded=0;orthogonalLoop=1;jettySize=auto;html=1;exitX=1;exitY=0.5;exitDx=0;exitDy=0;entryX=0;entryY=0.5;entryDx=0;entryDy=0;endArrow=none;endFill=0;" edge="1" parent="1" source="YBxgFGGmpdbFOVAmpeM1-4" target="YBxgFGGmpdbFOVAmpeM1-7">
          <mxGeometry relative="1" as="geometry" />
        </mxCell>
        <mxCell id="YBxgFGGmpdbFOVAmpeM1-13" style="edgeStyle=orthogonalEdgeStyle;rounded=0;orthogonalLoop=1;jettySize=auto;html=1;exitX=0.5;exitY=1;exitDx=0;exitDy=0;entryX=0.5;entryY=0;entryDx=0;entryDy=0;endArrow=none;endFill=0;" edge="1" parent="1" source="YBxgFGGmpdbFOVAmpeM1-4" target="YBxgFGGmpdbFOVAmpeM1-5">
          <mxGeometry relative="1" as="geometry" />
        </mxCell>
        <mxCell id="YBxgFGGmpdbFOVAmpeM1-4" value="item" style="rounded=0;whiteSpace=wrap;html=1;" vertex="1" parent="1">
          <mxGeometry x="360" y="80" width="120" height="60" as="geometry" />
        </mxCell>
        <mxCell id="YBxgFGGmpdbFOVAmpeM1-14" style="edgeStyle=orthogonalEdgeStyle;rounded=0;orthogonalLoop=1;jettySize=auto;html=1;exitX=0.5;exitY=1;exitDx=0;exitDy=0;entryX=0.5;entryY=0;entryDx=0;entryDy=0;endArrow=none;endFill=0;" edge="1" parent="1" source="YBxgFGGmpdbFOVAmpeM1-5" target="YBxgFGGmpdbFOVAmpeM1-3">
          <mxGeometry relative="1" as="geometry" />
        </mxCell>
        <mxCell id="YBxgFGGmpdbFOVAmpeM1-5" value="belongs" style="rhombus;whiteSpace=wrap;html=1;" vertex="1" parent="1">
          <mxGeometry x="380" y="200" width="80" height="80" as="geometry" />
        </mxCell>
        <mxCell id="YBxgFGGmpdbFOVAmpeM1-16" style="edgeStyle=orthogonalEdgeStyle;rounded=0;orthogonalLoop=1;jettySize=auto;html=1;exitX=1;exitY=0.5;exitDx=0;exitDy=0;entryX=1;entryY=0.5;entryDx=0;entryDy=0;endArrow=none;endFill=0;" edge="1" parent="1" source="YBxgFGGmpdbFOVAmpeM1-6" target="YBxgFGGmpdbFOVAmpeM1-3">
          <mxGeometry relative="1" as="geometry">
            <Array as="points">
              <mxPoint x="520" y="505" />
              <mxPoint x="520" y="370" />
            </Array>
          </mxGeometry>
        </mxCell>
        <mxCell id="YBxgFGGmpdbFOVAmpeM1-6" value="&lt;div&gt;assigned&lt;/div&gt;&lt;div&gt;hierarchally&lt;br&gt;&lt;/div&gt;" style="rhombus;whiteSpace=wrap;html=1;" vertex="1" parent="1">
          <mxGeometry x="375" y="460" width="90" height="90" as="geometry" />
        </mxCell>
        <mxCell id="YBxgFGGmpdbFOVAmpeM1-12" style="edgeStyle=orthogonalEdgeStyle;rounded=0;orthogonalLoop=1;jettySize=auto;html=1;exitX=1;exitY=0.5;exitDx=0;exitDy=0;endArrow=none;endFill=0;" edge="1" parent="1" source="YBxgFGGmpdbFOVAmpeM1-7" target="YBxgFGGmpdbFOVAmpeM1-2">
          <mxGeometry relative="1" as="geometry" />
        </mxCell>
        <mxCell id="YBxgFGGmpdbFOVAmpeM1-7" value="supplied" style="rhombus;whiteSpace=wrap;html=1;" vertex="1" parent="1">
          <mxGeometry x="540" y="70" width="80" height="80" as="geometry" />
        </mxCell>
        <mxCell id="YBxgFGGmpdbFOVAmpeM1-10" style="edgeStyle=orthogonalEdgeStyle;rounded=0;orthogonalLoop=1;jettySize=auto;html=1;exitX=0;exitY=0.5;exitDx=0;exitDy=0;endArrow=none;endFill=0;" edge="1" parent="1" source="YBxgFGGmpdbFOVAmpeM1-8" target="YBxgFGGmpdbFOVAmpeM1-1">
          <mxGeometry relative="1" as="geometry" />
        </mxCell>
        <mxCell id="YBxgFGGmpdbFOVAmpeM1-8" value="assigned" style="rhombus;whiteSpace=wrap;html=1;" vertex="1" parent="1">
          <mxGeometry x="220" y="70" width="80" height="80" as="geometry" />
        </mxCell>
        <mxCell id="YBxgFGGmpdbFOVAmpeM1-17" value="(1,1)" style="text;html=1;strokeColor=none;fillColor=none;align=center;verticalAlign=middle;whiteSpace=wrap;rounded=0;" vertex="1" parent="1">
          <mxGeometry x="160" y="80" width="60" height="30" as="geometry" />
        </mxCell>
        <mxCell id="YBxgFGGmpdbFOVAmpeM1-18" value="(1,1)" style="text;html=1;strokeColor=none;fillColor=none;align=center;verticalAlign=middle;whiteSpace=wrap;rounded=0;" vertex="1" parent="1">
          <mxGeometry x="360" y="310" width="60" height="30" as="geometry" />
        </mxCell>
        <mxCell id="YBxgFGGmpdbFOVAmpeM1-19" value="(1,1)" style="text;html=1;strokeColor=none;fillColor=none;align=center;verticalAlign=middle;whiteSpace=wrap;rounded=0;" vertex="1" parent="1">
          <mxGeometry x="360" y="400" width="60" height="30" as="geometry" />
        </mxCell>
        <mxCell id="YBxgFGGmpdbFOVAmpeM1-20" value="(1,N)" style="text;html=1;strokeColor=none;fillColor=none;align=center;verticalAlign=middle;whiteSpace=wrap;rounded=0;" vertex="1" parent="1">
          <mxGeometry x="480" y="340" width="60" height="30" as="geometry" />
        </mxCell>
        <mxCell id="YBxgFGGmpdbFOVAmpeM1-21" value="(1,N)" style="text;html=1;strokeColor=none;fillColor=none;align=center;verticalAlign=middle;whiteSpace=wrap;rounded=0;" vertex="1" parent="1">
          <mxGeometry x="300" y="80" width="60" height="30" as="geometry" />
        </mxCell>
        <mxCell id="YBxgFGGmpdbFOVAmpeM1-22" value="(1,N)" style="text;html=1;strokeColor=none;fillColor=none;align=center;verticalAlign=middle;whiteSpace=wrap;rounded=0;" vertex="1" parent="1">
          <mxGeometry x="360" y="140" width="60" height="30" as="geometry" />
        </mxCell>
        <mxCell id="YBxgFGGmpdbFOVAmpeM1-23" value="(1,N)" style="text;html=1;strokeColor=none;fillColor=none;align=center;verticalAlign=middle;whiteSpace=wrap;rounded=0;" vertex="1" parent="1">
          <mxGeometry x="480" y="80" width="60" height="30" as="geometry" />
        </mxCell>
        <mxCell id="YBxgFGGmpdbFOVAmpeM1-24" value="(2,N)" style="text;html=1;strokeColor=none;fillColor=none;align=center;verticalAlign=middle;whiteSpace=wrap;rounded=0;" vertex="1" parent="1">
          <mxGeometry x="620" y="80" width="60" height="30" as="geometry" />
        </mxCell>
        <mxCell id="YBxgFGGmpdbFOVAmpeM1-25" value="1:N" style="text;html=1;strokeColor=none;fillColor=none;align=center;verticalAlign=middle;whiteSpace=wrap;rounded=0;" vertex="1" parent="1">
          <mxGeometry x="390" y="550" width="60" height="30" as="geometry" />
        </mxCell>
        <mxCell id="YBxgFGGmpdbFOVAmpeM1-26" value="1:N" style="text;html=1;strokeColor=none;fillColor=none;align=center;verticalAlign=middle;whiteSpace=wrap;rounded=0;" vertex="1" parent="1">
          <mxGeometry x="320" y="225" width="60" height="30" as="geometry" />
        </mxCell>
        <mxCell id="YBxgFGGmpdbFOVAmpeM1-27" value="1:N" style="text;html=1;strokeColor=none;fillColor=none;align=center;verticalAlign=middle;whiteSpace=wrap;rounded=0;" vertex="1" parent="1">
          <mxGeometry x="230" y="40" width="60" height="30" as="geometry" />
        </mxCell>
        <mxCell id="YBxgFGGmpdbFOVAmpeM1-28" value="M:N" style="text;html=1;strokeColor=none;fillColor=none;align=center;verticalAlign=middle;whiteSpace=wrap;rounded=0;" vertex="1" parent="1">
          <mxGeometry x="550" y="40" width="60" height="30" as="geometry" />
        </mxCell>
      </root>
    </mxGraphModel>
  </diagram>
</mxfile>
